<svg class="sample" viewBox="-20 -20 440 440" width="400" height="400" overflow="visible" xmlns="http://www.w3.org/2000/svg" style="background-color: white;"><path d="M 373.2051,100 A 190,190 0 0 0 232.9932,12.8865  A 180,180 0 0 1 346.1208,94.8871  Z" fill="tranparent" stroke="rgba(214, 28, 78, 1)" stroke-width="1" fill-opacity="0" shape-rendering="geometricPrecision" stroke-linejoin="round" vector-effect="non-scaling-stroke"></path><path d="M 200,0 A 190,190 0 0 0 77.8704,54.4516  A 180,180 0 0 1 182.03,20.8993  Z" fill="tranparent" stroke="rgba(214, 28, 78, 1)" stroke-width="1" fill-opacity="0" shape-rendering="geometricPrecision" stroke-linejoin="round" vector-effect="non-scaling-stroke"></path><path d="M 46.7911,71.4425 A 190,190 0 0 0 12.8865,167.0068  A 180,180 0 0 1 51.25,98.6421  Z" fill="tranparent" stroke="rgba(214, 28, 78, 1)" stroke-width="1" fill-opacity="0" shape-rendering="geometricPrecision" stroke-linejoin="round" vector-effect="non-scaling-stroke"></path><path d="M 0,200 A 190,190 0 0 0 21.4584,264.9838  A 180,180 0 0 1 20.8993,217.97  Z" fill="tranparent" stroke="rgba(214, 28, 78, 1)" stroke-width="1" fill-opacity="0" shape-rendering="geometricPrecision" stroke-linejoin="round" vector-effect="non-scaling-stroke"></path><path d="M 46.7911,328.5575 A 190,190 0 0 0 200,390  A 180,180 0 0 1 74.3518,328.8896  Z" fill="rgba(214, 28, 78, 1)" stroke="none" stroke-width="0" fill-opacity="1" shape-rendering="geometricPrecision" stroke-linejoin="round" vector-effect="non-scaling-stroke"></path><path d="M 234.7296,396.9616 A 190,190 0 0 0 345.5484,322.1296  A 180,180 0 0 1 248.7975,373.2593  Z" fill="rgba(214, 28, 78, 1)" stroke="none" stroke-width="0" fill-opacity="1" shape-rendering="geometricPrecision" stroke-linejoin="round" vector-effect="non-scaling-stroke"></path><path d="M 373.2051,300 A 190,190 0 0 0 390,200  A 180,180 0 0 1 364.0908,273.9879  Z" fill="rgba(214, 28, 78, 1)" stroke="none" stroke-width="0" fill-opacity="1" shape-rendering="geometricPrecision" stroke-linejoin="round" vector-effect="non-scaling-stroke"></path></svg>