<svg class="sample" viewBox="-20 -20 440 440" width="400" height="400" overflow="visible" xmlns="http://www.w3.org/2000/svg" style="background-color: white;"><path d="M 364.5448,105 A 200,200 0 0 0 254.2195,7.4896  C 234.7296,3.0384 232.9932,12.8865 232.9932,12.8865 C 232.9932,12.8865 231.2567,22.7346 248.7975,26.7407 A 190,190 0 0 1 364.5448,105 " fill="tranparent" stroke="rgba(214, 28, 78, 1)" stroke-width="1" fill-opacity="0" shape-rendering="geometricPrecision" stroke-linejoin="round" vector-effect="non-scaling-stroke"></path><path d="M 200,10 A 200,200 0 0 0 87.3801,34.7222  C 71.4425,46.7911 77.8704,54.4516 77.8704,54.4516 C 77.8704,54.4516 84.2982,62.112 98.6421,51.25 A 190,190 0 0 1 200,10 " fill="tranparent" stroke="rgba(214, 28, 78, 1)" stroke-width="1" fill-opacity="0" shape-rendering="geometricPrecision" stroke-linejoin="round" vector-effect="non-scaling-stroke"></path><path d="M 54.4516,77.8704 A 200,200 0 0 0 7.4896,145.7805  C 3.0384,165.2704 12.8865,167.0068 12.8865,167.0068 C 12.8865,167.0068 22.7346,168.7433 26.7407,151.2025 A 190,190 0 0 1 54.4516,77.8704 " fill="tranparent" stroke="rgba(214, 28, 78, 1)" stroke-width="1" fill-opacity="0" shape-rendering="geometricPrecision" stroke-linejoin="round" vector-effect="non-scaling-stroke"></path><path d="M 10,200 A 200,200 0 0 0 6.1714,249.2997  C 12.0615,268.404 21.4584,264.9838 21.4584,264.9838 C 21.4584,264.9838 30.8553,261.5636 25.5542,244.3698 A 190,190 0 0 1 10,200 " fill="tranparent" stroke="rgba(214, 28, 78, 1)" stroke-width="1" fill-opacity="0" shape-rendering="geometricPrecision" stroke-linejoin="round" vector-effect="non-scaling-stroke"></path><path d="M 54.4516,322.1296 A 200,200 0 0 0 180.0333,399.0008  C 200,400 200,390 200,390 C 200,390 200,380 182.03,379.1007 A 190,190 0 0 1 54.4516,322.1296 " fill="rgba(214, 28, 78, 1)" stroke="none" stroke-width="0" fill-opacity="1" shape-rendering="geometricPrecision" stroke-linejoin="round" vector-effect="non-scaling-stroke"></path><path d="M 232.9932,387.1135 A 200,200 0 0 0 339.6091,343.2106  C 353.2089,328.5575 345.5484,322.1296 345.5484,322.1296 C 345.5484,322.1296 337.888,315.7018 325.6482,328.8896 A 190,190 0 0 1 232.9932,387.1135 " fill="rgba(214, 28, 78, 1)" stroke="none" stroke-width="0" fill-opacity="1" shape-rendering="geometricPrecision" stroke-linejoin="round" vector-effect="non-scaling-stroke"></path><path d="M 364.5448,295 A 200,200 0 0 0 399.0008,219.9667  C 400,200 390,200 390,200 C 390,200 380,200 379.1007,217.97 A 190,190 0 0 1 364.5448,295 " fill="rgba(214, 28, 78, 1)" stroke="none" stroke-width="0" fill-opacity="1" shape-rendering="geometricPrecision" stroke-linejoin="round" vector-effect="non-scaling-stroke"></path></svg>