<svg class="sample" viewBox="-20 -20 440 440" width="400" height="400" overflow="visible" xmlns="http://www.w3.org/2000/svg" style="background-color: white;"><path d="M 367.9907,91.4683 A 200,200 0 0 0 244.5302,5.0204  L 231.2567,22.7346 A 180,180 0 0 1 355.8846,110  Z" fill="tranparent" stroke="rgba(214, 28, 78, 1)" stroke-width="1" fill-opacity="0" shape-rendering="geometricPrecision" stroke-linejoin="round" vector-effect="non-scaling-stroke"></path><path d="M 190.0042,0.2499 A 200,200 0 0 0 79.2604,40.5574  L 84.2982,62.112 A 180,180 0 0 1 200,20  Z" fill="tranparent" stroke="rgba(214, 28, 78, 1)" stroke-width="1" fill-opacity="0" shape-rendering="geometricPrecision" stroke-linejoin="round" vector-effect="non-scaling-stroke"></path><path d="M 40.5574,79.2604 A 200,200 0 0 0 5.0204,155.4698  L 22.7346,168.7433 A 180,180 0 0 1 62.112,84.2982  Z" fill="tranparent" stroke="rgba(214, 28, 78, 1)" stroke-width="1" fill-opacity="0" shape-rendering="geometricPrecision" stroke-linejoin="round" vector-effect="non-scaling-stroke"></path><path d="M 0.2499,209.9958 A 200,200 0 0 0 8.8776,258.9255  L 30.8553,261.5636 A 180,180 0 0 1 20,200  Z" fill="tranparent" stroke="rgba(214, 28, 78, 1)" stroke-width="1" fill-opacity="0" shape-rendering="geometricPrecision" stroke-linejoin="round" vector-effect="non-scaling-stroke"></path><path d="M 53.4078,336.0541 A 200,200 0 0 0 190.0042,399.7501  L 200,380 A 180,180 0 0 1 62.112,315.7018  Z" fill="rgba(214, 28, 78, 1)" stroke="none" stroke-width="0" fill-opacity="1" shape-rendering="geometricPrecision" stroke-linejoin="round" vector-effect="non-scaling-stroke"></path><path d="M 244.5302,394.9796 A 200,200 0 0 0 346.5922,336.0541  L 337.888,315.7018 A 180,180 0 0 1 231.2567,377.2654  Z" fill="rgba(214, 28, 78, 1)" stroke="none" stroke-width="0" fill-opacity="1" shape-rendering="geometricPrecision" stroke-linejoin="round" vector-effect="non-scaling-stroke"></path><path d="M 377.9865,291.2184 A 200,200 0 0 0 399.7501,209.9958  L 380,200 A 180,180 0 0 1 355.8846,290  Z" fill="rgba(214, 28, 78, 1)" stroke="none" stroke-width="0" fill-opacity="1" shape-rendering="geometricPrecision" stroke-linejoin="round" vector-effect="non-scaling-stroke"></path></svg>