<svg class="sample" viewBox="-20 -20 440 440" width="400" height="400" overflow="visible" xmlns="http://www.w3.org/2000/svg" style="background-color: white;"><path d="M 373.2051,100 A 200,200 0 0 0 244.5302,5.0204  L 231.2567,22.7346 A 180,180 0 0 1 351.1916,102.3215  Z" fill="tranparent" stroke="rgba(214, 28, 78, 1)" stroke-width="1" fill-opacity="0" shape-rendering="geometricPrecision" stroke-linejoin="round" vector-effect="non-scaling-stroke"></path><path d="M 200,0 A 200,200 0 0 0 79.2604,40.5574  L 84.2982,62.112 A 180,180 0 0 1 191.0037,20.225  Z" fill="tranparent" stroke="rgba(214, 28, 78, 1)" stroke-width="1" fill-opacity="0" shape-rendering="geometricPrecision" stroke-linejoin="round" vector-effect="non-scaling-stroke"></path><path d="M 46.7911,71.4425 A 200,200 0 0 0 5.0204,155.4698  L 22.7346,168.7433 A 180,180 0 0 1 56.5016,91.3344  Z" fill="tranparent" stroke="rgba(214, 28, 78, 1)" stroke-width="1" fill-opacity="0" shape-rendering="geometricPrecision" stroke-linejoin="round" vector-effect="non-scaling-stroke"></path><path d="M 0,200 A 200,200 0 0 0 8.8776,258.9255  L 30.8553,261.5636 A 180,180 0 0 1 20.225,208.9963  Z" fill="tranparent" stroke="rgba(214, 28, 78, 1)" stroke-width="1" fill-opacity="0" shape-rendering="geometricPrecision" stroke-linejoin="round" vector-effect="non-scaling-stroke"></path><path d="M 46.7911,328.5575 A 200,200 0 0 0 190.0042,399.7501  L 200,380 A 180,180 0 0 1 68.067,322.4487  Z" fill="rgba(214, 28, 78, 1)" stroke="none" stroke-width="0" fill-opacity="1" shape-rendering="geometricPrecision" stroke-linejoin="round" vector-effect="non-scaling-stroke"></path><path d="M 234.7296,396.9616 A 200,200 0 0 0 346.5922,336.0541  L 337.888,315.7018 A 180,180 0 0 1 240.0772,375.4817  Z" fill="rgba(214, 28, 78, 1)" stroke="none" stroke-width="0" fill-opacity="1" shape-rendering="geometricPrecision" stroke-linejoin="round" vector-effect="non-scaling-stroke"></path><path d="M 373.2051,300 A 200,200 0 0 0 399.7501,209.9958  L 380,200 A 180,180 0 0 1 360.1879,282.0965  Z" fill="rgba(214, 28, 78, 1)" stroke="none" stroke-width="0" fill-opacity="1" shape-rendering="geometricPrecision" stroke-linejoin="round" vector-effect="non-scaling-stroke"></path></svg>