<svg class="sample" viewBox="-20 -20 440 440" width="400" height="400" overflow="visible" xmlns="http://www.w3.org/2000/svg" style="background-color: white;"><path d="M 362.3564,83.2079 A 190,190 0 0 0 232.9932,12.8865  A 180,180 0 0 1 346.1208,94.8871  C 355.8846,110 364.5448,105 364.5448,105 C 364.5448,105 373.2051,100 362.3564,83.2079" fill="tranparent" stroke="rgba(214, 28, 78, 1)" stroke-width="1" fill-opacity="0" shape-rendering="geometricPrecision" stroke-linejoin="round" vector-effect="non-scaling-stroke"></path><path d="M 180.0333,0.9992 A 190,190 0 0 0 77.8704,54.4516  A 180,180 0 0 1 182.03,20.8993  C 200,20 200,10 200,10 C 200,10 200,0 180.0333,0.9992" fill="tranparent" stroke="rgba(214, 28, 78, 1)" stroke-width="1" fill-opacity="0" shape-rendering="geometricPrecision" stroke-linejoin="round" vector-effect="non-scaling-stroke"></path><path d="M 34.7222,87.3801 A 190,190 0 0 0 12.8865,167.0068  A 180,180 0 0 1 51.25,98.6421  C 62.112,84.2982 54.4516,77.8704 54.4516,77.8704 C 54.4516,77.8704 46.7911,71.4425 34.7222,87.3801" fill="tranparent" stroke="rgba(214, 28, 78, 1)" stroke-width="1" fill-opacity="0" shape-rendering="geometricPrecision" stroke-linejoin="round" vector-effect="non-scaling-stroke"></path><path d="M 0.9992,219.9667 A 190,190 0 0 0 21.4584,264.9838  A 180,180 0 0 1 20.8993,217.97  C 20,200 10,200 10,200 C 10,200 0,200 0.9992,219.9667" fill="tranparent" stroke="rgba(214, 28, 78, 1)" stroke-width="1" fill-opacity="0" shape-rendering="geometricPrecision" stroke-linejoin="round" vector-effect="non-scaling-stroke"></path><path d="M 60.3909,343.2106 A 190,190 0 0 0 200,390  A 180,180 0 0 1 74.3518,328.8896  C 62.112,315.7018 54.4516,322.1296 54.4516,322.1296 C 54.4516,322.1296 46.7911,328.5575 60.3909,343.2106" fill="rgba(214, 28, 78, 1)" stroke="none" stroke-width="0" fill-opacity="1" shape-rendering="geometricPrecision" stroke-linejoin="round" vector-effect="non-scaling-stroke"></path><path d="M 254.2195,392.5104 A 190,190 0 0 0 345.5484,322.1296  A 180,180 0 0 1 248.7975,373.2593  C 231.2567,377.2654 232.9932,387.1135 232.9932,387.1135 C 232.9932,387.1135 234.7296,396.9616 254.2195,392.5104" fill="rgba(214, 28, 78, 1)" stroke="none" stroke-width="0" fill-opacity="1" shape-rendering="geometricPrecision" stroke-linejoin="round" vector-effect="non-scaling-stroke"></path><path d="M 382.3231,282.2088 A 190,190 0 0 0 390,200  A 180,180 0 0 1 364.0908,273.9879  C 355.8846,290 364.5448,295 364.5448,295 C 364.5448,295 373.2051,300 382.3231,282.2088" fill="rgba(214, 28, 78, 1)" stroke="none" stroke-width="0" fill-opacity="1" shape-rendering="geometricPrecision" stroke-linejoin="round" vector-effect="non-scaling-stroke"></path></svg>