<svg class="sample" viewBox="-20 -20 440 440" width="400" height="400" overflow="visible" xmlns="http://www.w3.org/2000/svg" style="background-color: white;"><path d="M 367.9907,91.4683 A 200,200 0 0 0 234.7296,3.0384  L 240.0772,24.5183 A 180,180 0 0 1 355.8846,110  Z" fill="tranparent" stroke="rgba(214, 28, 78, 1)" stroke-width="1" fill-opacity="0" shape-rendering="geometricPrecision" stroke-linejoin="round" vector-effect="non-scaling-stroke"></path><path d="M 190.0042,0.2499 A 200,200 0 0 0 71.4425,46.7911  L 91.3344,56.5016 A 180,180 0 0 1 200,20  Z" fill="tranparent" stroke="rgba(214, 28, 78, 1)" stroke-width="1" fill-opacity="0" shape-rendering="geometricPrecision" stroke-linejoin="round" vector-effect="non-scaling-stroke"></path><path d="M 40.5574,79.2604 A 200,200 0 0 0 3.0384,165.2704  L 24.5183,159.9228 A 180,180 0 0 1 62.112,84.2982  Z" fill="tranparent" stroke="rgba(214, 28, 78, 1)" stroke-width="1" fill-opacity="0" shape-rendering="geometricPrecision" stroke-linejoin="round" vector-effect="non-scaling-stroke"></path><path d="M 0.2499,209.9958 A 200,200 0 0 0 12.0615,268.404  L 27.9898,253.033 A 180,180 0 0 1 20,200  Z" fill="tranparent" stroke="rgba(214, 28, 78, 1)" stroke-width="1" fill-opacity="0" shape-rendering="geometricPrecision" stroke-linejoin="round" vector-effect="non-scaling-stroke"></path><path d="M 53.4078,336.0541 A 200,200 0 0 0 200,400  L 191.0037,379.775 A 180,180 0 0 1 62.112,315.7018  Z" fill="rgba(214, 28, 78, 1)" stroke="none" stroke-width="0" fill-opacity="1" shape-rendering="geometricPrecision" stroke-linejoin="round" vector-effect="non-scaling-stroke"></path><path d="M 244.5302,394.9796 A 200,200 0 0 0 353.2089,328.5575  L 331.933,322.4487 A 180,180 0 0 1 231.2567,377.2654  Z" fill="rgba(214, 28, 78, 1)" stroke="none" stroke-width="0" fill-opacity="1" shape-rendering="geometricPrecision" stroke-linejoin="round" vector-effect="non-scaling-stroke"></path><path d="M 377.9865,291.2184 A 200,200 0 0 0 400,200  L 379.775,208.9963 A 180,180 0 0 1 355.8846,290  Z" fill="rgba(214, 28, 78, 1)" stroke="none" stroke-width="0" fill-opacity="1" shape-rendering="geometricPrecision" stroke-linejoin="round" vector-effect="non-scaling-stroke"></path></svg>