<svg class="sample" viewBox="-20 -20 440 440" width="400" height="400" overflow="visible" xmlns="http://www.w3.org/2000/svg" style="background-color: white;"><path d="M 373.2051,100 A 200,200 0 0 0 234.7296,3.0384  L 240.0772,24.5183 A 180,180 0 0 1 351.1916,102.3215  Z" fill="tranparent" stroke="rgba(214, 28, 78, 1)" stroke-width="1" fill-opacity="0" shape-rendering="geometricPrecision" stroke-linejoin="round" vector-effect="non-scaling-stroke"></path><path d="M 200,0 A 200,200 0 0 0 71.4425,46.7911  L 91.3344,56.5016 A 180,180 0 0 1 191.0037,20.225  Z" fill="tranparent" stroke="rgba(214, 28, 78, 1)" stroke-width="1" fill-opacity="0" shape-rendering="geometricPrecision" stroke-linejoin="round" vector-effect="non-scaling-stroke"></path><path d="M 46.7911,71.4425 A 200,200 0 0 0 3.0384,165.2704  L 24.5183,159.9228 A 180,180 0 0 1 56.5016,91.3344  Z" fill="tranparent" stroke="rgba(214, 28, 78, 1)" stroke-width="1" fill-opacity="0" shape-rendering="geometricPrecision" stroke-linejoin="round" vector-effect="non-scaling-stroke"></path><path d="M 0,200 A 200,200 0 0 0 12.0615,268.404  L 27.9898,253.033 A 180,180 0 0 1 20.225,208.9963  Z" fill="tranparent" stroke="rgba(214, 28, 78, 1)" stroke-width="1" fill-opacity="0" shape-rendering="geometricPrecision" stroke-linejoin="round" vector-effect="non-scaling-stroke"></path><path d="M 46.7911,328.5575 A 200,200 0 0 0 200,400  L 191.0037,379.775 A 180,180 0 0 1 68.067,322.4487  Z" fill="rgba(214, 28, 78, 1)" stroke="none" stroke-width="0" fill-opacity="1" shape-rendering="geometricPrecision" stroke-linejoin="round" vector-effect="non-scaling-stroke"></path><path d="M 234.7296,396.9616 A 200,200 0 0 0 353.2089,328.5575  L 331.933,322.4487 A 180,180 0 0 1 240.0772,375.4817  Z" fill="rgba(214, 28, 78, 1)" stroke="none" stroke-width="0" fill-opacity="1" shape-rendering="geometricPrecision" stroke-linejoin="round" vector-effect="non-scaling-stroke"></path><path d="M 373.2051,300 A 200,200 0 0 0 400,200  L 379.775,208.9963 A 180,180 0 0 1 360.1879,282.0965  Z" fill="rgba(214, 28, 78, 1)" stroke="none" stroke-width="0" fill-opacity="1" shape-rendering="geometricPrecision" stroke-linejoin="round" vector-effect="non-scaling-stroke"></path></svg>