<svg class="sample" viewBox="-20 -20 440 440" width="400" height="400" overflow="visible" xmlns="http://www.w3.org/2000/svg" style="background-color: white;"><path d="M 367.9907,91.4683 A 200,200 0 0 0 244.5302,5.0204  C 234.7296,3.0384 232.9932,12.8865 232.9932,12.8865 C 232.9932,12.8865 231.2567,22.7346 240.0772,24.5183 A 180,180 0 0 1 351.1916,102.3215  C 355.8846,110 364.5448,105 364.5448,105 C 364.5448,105 373.2051,100 367.9907,91.4683" fill="tranparent" stroke="rgba(214, 28, 78, 1)" stroke-width="1" fill-opacity="0" shape-rendering="geometricPrecision" stroke-linejoin="round" vector-effect="non-scaling-stroke"></path><path d="M 190.0042,0.2499 A 200,200 0 0 0 79.2604,40.5574  C 71.4425,46.7911 77.8704,54.4516 77.8704,54.4516 C 77.8704,54.4516 84.2982,62.112 91.3344,56.5016 A 180,180 0 0 1 191.0037,20.225  C 200,20 200,10 200,10 C 200,10 200,0 190.0042,0.2499" fill="tranparent" stroke="rgba(214, 28, 78, 1)" stroke-width="1" fill-opacity="0" shape-rendering="geometricPrecision" stroke-linejoin="round" vector-effect="non-scaling-stroke"></path><path d="M 40.5574,79.2604 A 200,200 0 0 0 5.0204,155.4698  C 3.0384,165.2704 12.8865,167.0068 12.8865,167.0068 C 12.8865,167.0068 22.7346,168.7433 24.5183,159.9228 A 180,180 0 0 1 56.5016,91.3344  C 62.112,84.2982 54.4516,77.8704 54.4516,77.8704 C 54.4516,77.8704 46.7911,71.4425 40.5574,79.2604" fill="tranparent" stroke="rgba(214, 28, 78, 1)" stroke-width="1" fill-opacity="0" shape-rendering="geometricPrecision" stroke-linejoin="round" vector-effect="non-scaling-stroke"></path><path d="M 0.2499,209.9958 A 200,200 0 0 0 8.8776,258.9255  C 12.0615,268.404 21.4584,264.9838 21.4584,264.9838 C 21.4584,264.9838 30.8553,261.5636 27.9898,253.033 A 180,180 0 0 1 20.225,208.9963  C 20,200 10,200 10,200 C 10,200 0,200 0.2499,209.9958" fill="tranparent" stroke="rgba(214, 28, 78, 1)" stroke-width="1" fill-opacity="0" shape-rendering="geometricPrecision" stroke-linejoin="round" vector-effect="non-scaling-stroke"></path><path d="M 53.4078,336.0541 A 200,200 0 0 0 190.0042,399.7501  C 200,400 200,390 200,390 C 200,390 200,380 191.0037,379.775 A 180,180 0 0 1 68.067,322.4487  C 62.112,315.7018 54.4516,322.1296 54.4516,322.1296 C 54.4516,322.1296 46.7911,328.5575 53.4078,336.0541" fill="rgba(214, 28, 78, 1)" stroke="none" stroke-width="0" fill-opacity="1" shape-rendering="geometricPrecision" stroke-linejoin="round" vector-effect="non-scaling-stroke"></path><path d="M 244.5302,394.9796 A 200,200 0 0 0 346.5922,336.0541  C 353.2089,328.5575 345.5484,322.1296 345.5484,322.1296 C 345.5484,322.1296 337.888,315.7018 331.933,322.4487 A 180,180 0 0 1 240.0772,375.4817  C 231.2567,377.2654 232.9932,387.1135 232.9932,387.1135 C 232.9932,387.1135 234.7296,396.9616 244.5302,394.9796" fill="rgba(214, 28, 78, 1)" stroke="none" stroke-width="0" fill-opacity="1" shape-rendering="geometricPrecision" stroke-linejoin="round" vector-effect="non-scaling-stroke"></path><path d="M 377.9865,291.2184 A 200,200 0 0 0 399.7501,209.9958  C 400,200 390,200 390,200 C 390,200 380,200 379.775,208.9963 A 180,180 0 0 1 360.1879,282.0965  C 355.8846,290 364.5448,295 364.5448,295 C 364.5448,295 373.2051,300 377.9865,291.2184" fill="rgba(214, 28, 78, 1)" stroke="none" stroke-width="0" fill-opacity="1" shape-rendering="geometricPrecision" stroke-linejoin="round" vector-effect="non-scaling-stroke"></path></svg>