<svg class="sample" viewBox="-20 -20 440 440" width="400" height="400" overflow="visible" xmlns="http://www.w3.org/2000/svg" style="background-color: white;"><path d="M 364.5448,105 A 200,200 0 0 0 254.2195,7.4896  L 231.2567,22.7346 A 190,190 0 0 1 364.5448,105 " fill="tranparent" stroke="rgba(214, 28, 78, 1)" stroke-width="1" fill-opacity="0" shape-rendering="geometricPrecision" stroke-linejoin="round" vector-effect="non-scaling-stroke"></path><path d="M 200,10 A 200,200 0 0 0 87.3801,34.7222  L 84.2982,62.112 A 190,190 0 0 1 200,10 " fill="tranparent" stroke="rgba(214, 28, 78, 1)" stroke-width="1" fill-opacity="0" shape-rendering="geometricPrecision" stroke-linejoin="round" vector-effect="non-scaling-stroke"></path><path d="M 54.4516,77.8704 A 200,200 0 0 0 7.4896,145.7805  L 22.7346,168.7433 A 190,190 0 0 1 54.4516,77.8704 " fill="tranparent" stroke="rgba(214, 28, 78, 1)" stroke-width="1" fill-opacity="0" shape-rendering="geometricPrecision" stroke-linejoin="round" vector-effect="non-scaling-stroke"></path><path d="M 10,200 A 200,200 0 0 0 6.1714,249.2997  L 30.8553,261.5636 A 190,190 0 0 1 10,200 " fill="tranparent" stroke="rgba(214, 28, 78, 1)" stroke-width="1" fill-opacity="0" shape-rendering="geometricPrecision" stroke-linejoin="round" vector-effect="non-scaling-stroke"></path><path d="M 54.4516,322.1296 A 200,200 0 0 0 180.0333,399.0008  L 200,380 A 190,190 0 0 1 54.4516,322.1296 " fill="rgba(214, 28, 78, 1)" stroke="none" stroke-width="0" fill-opacity="1" shape-rendering="geometricPrecision" stroke-linejoin="round" vector-effect="non-scaling-stroke"></path><path d="M 232.9932,387.1135 A 200,200 0 0 0 339.6091,343.2106  L 337.888,315.7018 A 190,190 0 0 1 232.9932,387.1135 " fill="rgba(214, 28, 78, 1)" stroke="none" stroke-width="0" fill-opacity="1" shape-rendering="geometricPrecision" stroke-linejoin="round" vector-effect="non-scaling-stroke"></path><path d="M 364.5448,295 A 200,200 0 0 0 399.0008,219.9667  L 380,200 A 190,190 0 0 1 364.5448,295 " fill="rgba(214, 28, 78, 1)" stroke="none" stroke-width="0" fill-opacity="1" shape-rendering="geometricPrecision" stroke-linejoin="round" vector-effect="non-scaling-stroke"></path></svg>