<svg class="sample" viewBox="-20 -20 440 440" width="400" height="400" overflow="visible" xmlns="http://www.w3.org/2000/svg" style="background-color: white;"><path d="M 373.2051,100 A 190,190 0 0 0 232.9932,12.8865  A 180,180 0 0 1 355.8846,110  Z" fill="tranparent" stroke="rgba(214, 28, 78, 1)" stroke-width="1" fill-opacity="0" shape-rendering="geometricPrecision" stroke-linejoin="round" vector-effect="non-scaling-stroke"></path><path d="M 200,0 A 190,190 0 0 0 77.8704,54.4516  A 180,180 0 0 1 200,20  Z" fill="tranparent" stroke="rgba(214, 28, 78, 1)" stroke-width="1" fill-opacity="0" shape-rendering="geometricPrecision" stroke-linejoin="round" vector-effect="non-scaling-stroke"></path><path d="M 46.7911,71.4425 A 190,190 0 0 0 12.8865,167.0068  A 180,180 0 0 1 62.112,84.2982  Z" fill="tranparent" stroke="rgba(214, 28, 78, 1)" stroke-width="1" fill-opacity="0" shape-rendering="geometricPrecision" stroke-linejoin="round" vector-effect="non-scaling-stroke"></path><path d="M 0,200 A 190,190 0 0 0 21.4584,264.9838  A 180,180 0 0 1 20,200  Z" fill="tranparent" stroke="rgba(214, 28, 78, 1)" stroke-width="1" fill-opacity="0" shape-rendering="geometricPrecision" stroke-linejoin="round" vector-effect="non-scaling-stroke"></path><path d="M 46.7911,328.5575 A 190,190 0 0 0 200,390  A 180,180 0 0 1 62.112,315.7018  Z" fill="rgba(214, 28, 78, 1)" stroke="none" stroke-width="0" fill-opacity="1" shape-rendering="geometricPrecision" stroke-linejoin="round" vector-effect="non-scaling-stroke"></path><path d="M 234.7296,396.9616 A 190,190 0 0 0 345.5484,322.1296  A 180,180 0 0 1 231.2567,377.2654  Z" fill="rgba(214, 28, 78, 1)" stroke="none" stroke-width="0" fill-opacity="1" shape-rendering="geometricPrecision" stroke-linejoin="round" vector-effect="non-scaling-stroke"></path><path d="M 373.2051,300 A 190,190 0 0 0 390,200  A 180,180 0 0 1 355.8846,290  Z" fill="rgba(214, 28, 78, 1)" stroke="none" stroke-width="0" fill-opacity="1" shape-rendering="geometricPrecision" stroke-linejoin="round" vector-effect="non-scaling-stroke"></path></svg>