<svg class="sample" viewBox="-20 -20 440 440" width="400" height="400" overflow="visible" xmlns="http://www.w3.org/2000/svg" style="background-color: white;"><path d="M 364.5448,105 A 200,200 0 0 0 234.7296,3.0384  L 231.2567,22.7346 A 190,190 0 0 1 364.5448,105 " fill="tranparent" stroke="rgba(214, 28, 78, 1)" stroke-width="1" fill-opacity="0" shape-rendering="geometricPrecision" stroke-linejoin="round" vector-effect="non-scaling-stroke"></path><path d="M 200,10 A 200,200 0 0 0 71.4425,46.7911  L 84.2982,62.112 A 190,190 0 0 1 200,10 " fill="tranparent" stroke="rgba(214, 28, 78, 1)" stroke-width="1" fill-opacity="0" shape-rendering="geometricPrecision" stroke-linejoin="round" vector-effect="non-scaling-stroke"></path><path d="M 54.4516,77.8704 A 200,200 0 0 0 3.0384,165.2704  L 22.7346,168.7433 A 190,190 0 0 1 54.4516,77.8704 " fill="tranparent" stroke="rgba(214, 28, 78, 1)" stroke-width="1" fill-opacity="0" shape-rendering="geometricPrecision" stroke-linejoin="round" vector-effect="non-scaling-stroke"></path><path d="M 10,200 A 200,200 0 0 0 12.0615,268.404  L 30.8553,261.5636 A 190,190 0 0 1 10,200 " fill="tranparent" stroke="rgba(214, 28, 78, 1)" stroke-width="1" fill-opacity="0" shape-rendering="geometricPrecision" stroke-linejoin="round" vector-effect="non-scaling-stroke"></path><path d="M 54.4516,322.1296 A 200,200 0 0 0 200,400  L 200,380 A 190,190 0 0 1 54.4516,322.1296 " fill="rgba(214, 28, 78, 1)" stroke="none" stroke-width="0" fill-opacity="1" shape-rendering="geometricPrecision" stroke-linejoin="round" vector-effect="non-scaling-stroke"></path><path d="M 232.9932,387.1135 A 200,200 0 0 0 353.2089,328.5575  L 337.888,315.7018 A 190,190 0 0 1 232.9932,387.1135 " fill="rgba(214, 28, 78, 1)" stroke="none" stroke-width="0" fill-opacity="1" shape-rendering="geometricPrecision" stroke-linejoin="round" vector-effect="non-scaling-stroke"></path><path d="M 364.5448,295 A 200,200 0 0 0 400,200  L 380,200 A 190,190 0 0 1 364.5448,295 " fill="rgba(214, 28, 78, 1)" stroke="none" stroke-width="0" fill-opacity="1" shape-rendering="geometricPrecision" stroke-linejoin="round" vector-effect="non-scaling-stroke"></path></svg>