<svg class="sample" width="500" height="500" overflow="visible" xmlns="http://www.w3.org/2000/svg"><path d="M 466.5064,125 A 250,250 0 0 0 250,0  L 250,20 A 230,230 0 0 1 449.1858,135  Z" fill="rgba(178, 31, 102, 1)" stroke="none" stroke-width="0" fill-opacity="1" shape-rendering="geometricPrecision" stroke-linejoin="round" vector-effect="non-scaling-stroke"></path><path d="M 125,33.4936 A 250,250 0 0 0 0,250  L 20,250 A 230,230 0 0 1 135,50.8142  Z" fill="rgba(178, 31, 102, 1)" stroke="none" stroke-width="0" fill-opacity="1" shape-rendering="geometricPrecision" stroke-linejoin="round" vector-effect="non-scaling-stroke"></path><path d="M 33.4936,375 A 250,250 0 0 0 250,500  L 250,480 A 230,230 0 0 1 50.8142,365  Z" fill="rgba(178, 31, 102, 1)" stroke="none" stroke-width="0" fill-opacity="1" shape-rendering="geometricPrecision" stroke-linejoin="round" vector-effect="non-scaling-stroke"></path><path d="M 375,466.5064 A 250,250 0 0 0 500,250  L 480,250 A 230,230 0 0 1 365,449.1858  Z" fill="rgba(178, 31, 102, 1)" stroke="none" stroke-width="0" fill-opacity="1" shape-rendering="geometricPrecision" stroke-linejoin="round" vector-effect="non-scaling-stroke"></path></svg>